name Precision Landing15_filtered_grf.mot
datacolumns 37
datarows 10
range 1.226500 1.231000
endheader
time	1_ground_force_vx	1_ground_force_vy	1_ground_force_vz	1_ground_force_px	1_ground_force_py	1_ground_force_pz	1_ground_torque_x	1_ground_torque_y	1_ground_torque_z	2_ground_force_vx	2_ground_force_vy	2_ground_force_vz	2_ground_force_px	2_ground_force_py	2_ground_force_pz	2_ground_torque_x	2_ground_torque_y	2_ground_torque_z	3_ground_force_vx	3_ground_force_vy	3_ground_force_vz	3_ground_force_px	3_ground_force_py	3_ground_force_pz	3_ground_torque_x	3_ground_torque_y	3_ground_torque_z	4_ground_force_vx	4_ground_force_vy	4_ground_force_vz	4_ground_force_px	4_ground_force_py	4_ground_force_pz	4_ground_torque_x	4_ground_torque_y	4_ground_torque_z
            1.226500	          -44.552365	          692.034292	          117.422548	            0.119499	            0.000000	            0.295725	           -0.479432	            7.447045	            1.263595	           23.401389	          497.938070	           42.313874	           -0.139335	            0.000000	            0.309363	            0.414620	            8.822353	            0.749708	            5.064175	           -0.358475	           -0.560882	            0.353451	            1.255095	            1.891118	            0.001947	           -0.000138	           -0.000216	          -18.940283	            0.597995	           -2.776752	           -0.288846	            1.264848	            1.901048	            0.003426	           -0.000108	            0.000502
            1.227000	          -44.446737	          692.089825	          117.389462	            0.119459	            0.000000	            0.295732	           -0.480427	            7.480831	            1.268868	           23.238040	          498.556661	           42.006347	           -0.139283	            0.000000	            0.309377	            0.408292	            8.759630	            0.738051	            5.102232	           -0.380969	           -0.571882	            0.353448	            1.255093	            1.891120	            0.001615	           -0.000121	           -0.000181	          -18.943870	            0.600088	           -2.775332	           -0.288851	            1.264848	            1.901053	            0.003289	           -0.000104	            0.000482
            1.227500	          -44.317536	          692.107237	          117.365828	            0.119413	            0.000000	            0.295735	           -0.481276	            7.516090	            1.274560	           23.062978	          499.181661	           41.700368	           -0.139228	            0.000000	            0.309389	            0.401786	            8.696376	            0.726473	            5.140059	           -0.404684	           -0.582990	            0.353444	            1.255091	            1.891121	            0.001261	           -0.000099	           -0.000143	          -18.945616	            0.601514	           -2.773241	           -0.288856	            1.264847	            1.901058	            0.003174	           -0.000101	            0.000465
            1.228000	          -44.165517	          692.087095	          117.351973	            0.119363	            0.000000	            0.295736	           -0.481973	            7.552668	            1.280649	           22.876292	          499.812306	           41.396441	           -0.139171	            0.000000	            0.309397	            0.395116	            8.632675	            0.714992	            5.177397	           -0.429455	           -0.594042	            0.353442	            1.255089	            1.891124	            0.000889	           -0.000074	           -0.000102	          -18.945576	            0.602211	           -2.770492	           -0.288862	            1.264847	            1.901062	            0.003078	           -0.000098	            0.000450
            1.228500	          -43.991451	          692.030127	          117.348154	            0.119309	            0.000000	            0.295732	           -0.482515	            7.590451	            1.287119	           22.678086	          500.447850	           41.095081	           -0.139110	            0.000000	            0.309404	            0.388292	            8.568615	            0.703626	            5.213961	           -0.455117	           -0.605191	            0.353440	            1.255088	            1.891126	            0.000499	           -0.000044	           -0.000058	          -18.943797	            0.602133	           -2.767201	           -0.288869	            1.264847	            1.901067	            0.003002	           -0.000095	            0.000439
            1.229000	          -43.796125	          691.937217	          117.354548	            0.119250	            0.000000	            0.295726	           -0.482900	            7.629358	            1.293961	           22.468483	          501.087560	           40.796807	           -0.139047	            0.000000	            0.309407	            0.381327	            8.504285	            0.692389	            5.249492	           -0.481486	           -0.616437	            0.353438	            1.255086	            1.891129	            0.000094	           -0.000009	           -0.000011	          -18.940340	            0.601243	           -2.763426	           -0.288875	            1.264847	            1.901072	            0.002943	           -0.000093	            0.000429
            1.229500	          -43.580338	          691.809399	          117.371252	            0.119187	            0.000000	            0.295715	           -0.483128	            7.669341	            1.301168	           22.247622	          501.730717	           40.502148	           -0.138981	            0.000000	            0.309408	            0.374235	            8.439777	            0.681300	            5.283745	           -0.508359	           -0.627778	            0.353436	            1.255085	            1.891131	           -0.000325	            0.000031	            0.000039	          -18.935276	            0.599517	           -2.759211	           -0.288881	            1.264847	            1.901077	            0.002899	           -0.000092	            0.000423
            1.230000	          -43.344898	          691.647855	          117.398277	            0.119119	            0.000000	            0.295700	           -0.483202	            7.710386	            1.308738	           22.015657	          502.376607	           40.211631	           -0.138913	            0.000000	            0.309406	            0.367026	            8.375187	            0.670373	            5.316488	           -0.535527	           -0.639213	            0.353434	            1.255083	            1.891133	           -0.000756	            0.000076	            0.000091	          -18.928681	            0.596943	           -2.754592	           -0.288888	            1.264847	            1.901082	            0.002870	           -0.000090	            0.000418
            1.230500	          -43.090619	          691.453904	          117.435548	            0.119046	            0.000000	            0.295681	           -0.483127	            7.752504	            1.316674	           21.772764	          503.024524	           39.925786	           -0.138842	            0.000000	            0.309401	            0.359714	            8.310609	            0.659625	            5.347517	           -0.562763	           -0.650650	            0.353433	            1.255083	            1.891137	           -0.001196	            0.000126	            0.000145	          -18.920641	            0.593531	           -2.749551	           -0.288895	            1.264847	            1.901087	            0.002851	           -0.000089	            0.000414
            1.231000	          -42.818321	          691.228992	          117.482899	            0.118969	            0.000000	            0.295658	           -0.482908	            7.795724	            1.324980	           21.519133	          503.673761	           39.645137	           -0.138770	            0.000000	            0.309393	            0.352311	            8.246141	            0.649070	            5.376624	           -0.589846	           -0.662170	            0.353432	            1.255083	            1.891140	           -0.001642	            0.000180	            0.000202	          -18.911236	            0.589289	           -2.744144	           -0.288902	            1.264847	            1.901092	            0.002841	           -0.000089	            0.000412
